# xmcd CD database file
#
# Track frame offsets:
#	150
#	26714
#	60008
#	82897
#	123441
#
# Disc length: 1992 seconds
#
# Revision: 0
# Processed by: cddbd v1.5.2PL0 Copyright (c) Steve Scherf et al.
# Submitted via: CDex 1.51
#
DISCID=2f07c605
DTITLE=Jazztronik - Beauty-Flow
DYEAR=2007
DGENRE=Jazz
TTITLE0=Beauty-Flow(Main Mix) feat.Sonomi Tameoka
TTITLE1=Mista Swing(Club Mix)
TTITLE2=Love Tribe(The Incognito Vibe Mix) feat.Imaani
TTITLE3=Samurai(Redsoul Mix)
TTITLE4='on a tokyo bathroom wall feat.Robert Gallagher
EXTD=YEAR: 2007
EXTT0=
EXTT1=
EXTT2=
EXTT3=
EXTT4=
PLAYORDER=
